<?xml version="1.0" encoding="UTF-8" standalone="no"?>
<!-- Created with Inkscape (http://www.inkscape.org/) -->

<svg
   xmlns:dc="http://purl.org/dc/elements/1.1/"
   xmlns:cc="http://creativecommons.org/ns#"
   xmlns:rdf="http://www.w3.org/1999/02/22-rdf-syntax-ns#"
   xmlns:svg="http://www.w3.org/2000/svg"
   xmlns="http://www.w3.org/2000/svg"
   xmlns:sodipodi="http://sodipodi.sourceforge.net/DTD/sodipodi-0.dtd"
   xmlns:inkscape="http://www.inkscape.org/namespaces/inkscape"
   width="343.43759"
   height="80.841652"
   viewBox="0 0 90.86786 21.389354"
   version="1.1"
   id="svg8"
   inkscape:version="0.92.1 r15371"
   sodipodi:docname="141logo_paths.svg">
  <defs
     id="defs2" />
  <sodipodi:namedview
     id="base"
     pagecolor="#ffffff"
     bordercolor="#666666"
     borderopacity="1.0"
     inkscape:pageopacity="0.0"
     inkscape:pageshadow="2"
     inkscape:zoom="0.7"
     inkscape:cx="81.670866"
     inkscape:cy="-232.15761"
     inkscape:document-units="mm"
     inkscape:current-layer="layer1"
     showgrid="false"
     units="px"
     fit-margin-top="0"
     fit-margin-left="0"
     fit-margin-right="0"
     fit-margin-bottom="0"
     inkscape:window-width="1920"
     inkscape:window-height="1017"
     inkscape:window-x="-8"
     inkscape:window-y="-8"
     inkscape:window-maximized="1" />
  <metadata
     id="metadata5">
    <rdf:RDF>
      <cc:Work
         rdf:about="">
        <dc:format>image/svg+xml</dc:format>
        <dc:type
           rdf:resource="http://purl.org/dc/dcmitype/StillImage" />
        <dc:title></dc:title>
      </cc:Work>
    </rdf:RDF>
  </metadata>
  <g
     inkscape:groupmode="layer"
     id="layer2"
     inkscape:label="white_background"
     transform="translate(-148.05533,-27.480921)">
    <rect
       style="opacity:1;fill:#ffffff;fill-opacity:1;stroke:none;stroke-width:1.39600003;stroke-miterlimit:4;stroke-dasharray:none;stroke-dashoffset:0;stroke-opacity:1"
       id="rect4514"
       width="109.23512"
       height="39.309525"
       x="225.27382"
       y="73.327377"
       inkscape:export-xdpi="192"
       inkscape:export-ydpi="192" />
  </g>
  <g
     inkscape:label="Layer 1"
     inkscape:groupmode="layer"
     id="layer1"
     transform="translate(-148.05533,-6.9809035)">
    <g
       id="g4571">
      <path
         transform="matrix(0.26109565,0.13992186,-0.13992186,0.26109565,153.20874,5.9709248)"
         d="M 63.122022,48.669626 C 62.080577,49.954075 40.538216,61.63334 38.89356,61.80517 37.248904,61.976999 13.757667,55.002737 12.473217,53.961292 11.188768,52.919846 -0.4904967,31.377485 -0.66232643,29.732829 -0.83415617,28.088173 6.140106,4.5969365 7.1815515,3.3124871 8.222997,2.0280376 29.765358,-9.6512271 31.410014,-9.8230568 c 1.644656,-0.1718297 25.135893,6.8024324 26.420342,7.843878 1.28445,1.04144548 12.963714,22.5838058 13.135544,24.2284628 0.17183,1.644656 -6.802432,25.135892 -7.843878,26.420342 z"
         inkscape:randomized="0"
         inkscape:rounded="0.06"
         inkscape:flatsided="true"
         sodipodi:arg2="1.0739973"
         sodipodi:arg1="0.68129823"
         sodipodi:r2="33.268024"
         sodipodi:r1="36.009048"
         sodipodi:cy="25.991056"
         sodipodi:cx="35.151787"
         sodipodi:sides="8"
         id="path4485"
         style="opacity:1;fill:#ffffff;fill-opacity:1;stroke:#000000;stroke-width:4.71263885;stroke-miterlimit:4;stroke-dasharray:none;stroke-dashoffset:0;stroke-opacity:0.94117647"
         sodipodi:type="star" />
      <g
         id="text4491"
         style="font-style:normal;font-variant:normal;font-weight:normal;font-stretch:normal;font-size:8.76295376px;line-height:125%;font-family:Broadway;-inkscape-font-specification:Broadway;letter-spacing:0px;word-spacing:0px;fill:#000000;fill-opacity:1;stroke:none;stroke-width:0.36512306px;stroke-linecap:butt;stroke-linejoin:miter;stroke-opacity:1"
         aria-label="141">
        <path
           id="path4549"
           style="font-style:normal;font-variant:normal;font-weight:normal;font-stretch:normal;font-size:9.73661518px;font-family:Broadway;-inkscape-font-specification:Broadway;fill:#00695c;fill-opacity:1;stroke-width:0.36512306px"
           d="m 154.47453,14.582969 -0.038,2.714652 0.038,3.722544 v 0.156888 h -2.74318 v -0.156888 l 0.038,-3.779595 0.01,-1.397736 v -0.199677 l -0.0951,0.02853 -0.68936,0.213939 q -0.10459,0.03803 -0.18066,0.03803 -0.14263,0 -0.14263,-0.161643 0,-0.118855 0.0713,-0.161643 0.0761,-0.04279 0.43263,-0.133118 l 1.1933,-0.309023 0.4469,-0.118855 z" />
        <path
           id="path4551"
           style="font-style:normal;font-variant:normal;font-weight:normal;font-stretch:normal;font-size:9.73661518px;font-family:Broadway;-inkscape-font-specification:Broadway;fill:#00695c;fill-opacity:1;stroke-width:0.36512306px"
           d="m 160.58844,19.864892 v 1.312161 h -2.67662 l 0.0143,-0.665588 0.005,-0.532472 v -0.09508 h -0.12837 l -0.4564,-0.0048 -1.06019,0.01426 -0.2805,0.0048 q -0.25197,0 -0.35181,-0.04279 -0.0951,-0.04754 -0.0951,-0.166397 0,-0.08558 0.0903,-0.199677 0.0951,-0.118855 0.50394,-0.556242 l 4.44519,-4.758961 -0.005,0.342303 -0.0143,1.602168 -0.01,1.94447 0.0143,1.473804 q 0.0571,0.0095 0.0951,0.0095 0.0238,0 0.0856,-0.01902 l 0.51346,-0.01902 0.13787,-0.0095 q 0.15213,0 0.15213,0.180659 0,0.152135 -0.1236,0.171152 -0.0285,0.0095 -0.35182,0.01426 z m -2.65285,-0.309023 v -2.058571 l -1.90644,2.049063 q 0.46116,0.01902 0.90806,0.01902 z" />
        <path
           id="path4553"
           style="font-style:normal;font-variant:normal;font-weight:normal;font-stretch:normal;font-size:9.73661518px;font-family:Broadway;-inkscape-font-specification:Broadway;fill:#00695c;fill-opacity:1;stroke-width:0.36512306px"
           d="m 165.77052,14.582969 -0.038,2.714652 0.038,3.722544 v 0.156888 h -2.74317 v -0.156888 l 0.038,-3.779595 0.01,-1.397736 v -0.199677 l -0.0951,0.02853 -0.68936,0.213939 q -0.10459,0.03803 -0.18066,0.03803 -0.14262,0 -0.14262,-0.161643 0,-0.118855 0.0713,-0.161643 0.0761,-0.04279 0.43263,-0.133118 l 1.19331,-0.309023 0.44689,-0.118855 z" />
      </g>
      <g
         id="text4497"
         style="font-style:normal;font-variant:normal;font-weight:normal;font-stretch:normal;font-size:11.14433098px;line-height:125%;font-family:Metamorphous;-inkscape-font-specification:Metamorphous;letter-spacing:0px;word-spacing:0px;fill:#000000;fill-opacity:1;stroke:none;stroke-width:0.46434712px;stroke-linecap:butt;stroke-linejoin:miter;stroke-opacity:1"
         aria-label="CREATIONS">
        <path
           id="path4530"
           style="font-style:normal;font-variant:normal;font-weight:normal;font-stretch:normal;font-family:Broadway;-inkscape-font-specification:Broadway;stroke-width:0.46434712px"
           d="m 175.66496,14.160136 -0.0272,3.858072 0.0272,3.275824 q 0.28296,0.03809 0.46797,0.03809 0.53328,0 1.09376,-0.190455 0.56048,-0.190455 0.99036,-0.516949 0.27752,-0.212221 0.57137,-0.565923 0.29928,-0.353702 0.47886,-0.691079 0.10338,-0.195897 0.2231,-0.195897 0.17957,0 0.17957,0.152364 0,0.163247 -0.27208,0.55504 -0.26663,0.386352 -0.58769,0.696521 -0.69652,0.669313 -1.63791,0.930508 -0.56592,0.157805 -1.08831,0.157805 -0.76182,0 -1.52908,-0.326494 -1.2298,-0.516949 -1.8719,-1.637912 -0.53328,-0.930508 -0.53328,-1.975289 0,-1.066547 0.55504,-2.01338 0.59314,-1.00669 1.67601,-1.539963 0.78902,-0.38091 1.70321,-0.38091 1.56717,0 2.7099,1.061106 0.54416,0.506065 0.54416,0.72917 0,0.05986 -0.0544,0.108831 -0.0544,0.04897 -0.11971,0.04897 -0.10884,0 -0.2612,-0.212221 -0.46797,-0.647547 -1.23524,-1.023015 -0.76726,-0.38091 -1.62158,-0.38091 -0.20134,0 -0.38091,0.03809 z" />
        <path
           id="path4532"
           style="font-style:normal;font-variant:normal;font-weight:normal;font-stretch:normal;font-family:Broadway;-inkscape-font-specification:Broadway;stroke-width:0.46434712px"
           d="m 184.89386,20.21116 q 0.52239,0.359143 1.1264,0.614897 0.60946,0.250312 1.30598,0.391793 0.16869,0.03265 0.16869,0.163247 0,0.179572 -0.25032,0.179572 -0.57136,0 -1.60526,-0.500625 -0.85977,-0.419 -1.96985,-1.295093 v 0.223105 l 0.005,0.925066 v 0.527832 h -3.31392 v -0.24487 l 0.0109,-1.773951 0.0163,-2.122212 -0.0109,-3.286707 h 2.18752 q 1.46922,0 2.22015,0.08162 0.75094,0.08162 1.27877,0.304727 0.85977,0.359144 1.3604,1.180821 0.46253,0.761819 0.46253,1.599821 0,0.892417 -0.51695,1.681444 -0.83256,1.267885 -2.47591,1.349509 z m -0.51695,-0.337377 0.26119,0.0054 q 1.12097,0 1.89367,-0.62578 0.48974,-0.391793 0.75093,-0.979482 0.24488,-0.538716 0.24488,-1.099197 0,-0.952274 -0.62034,-1.703211 -0.47342,-0.582247 -1.18627,-0.821676 -0.71284,-0.239429 -2.00793,-0.255754 l -0.049,3.64585 v 0.984924 l 0.005,0.255754 q 0.33194,0.321052 0.70741,0.593131 z" />
        <path
           id="path4534"
           style="font-style:normal;font-variant:normal;font-weight:normal;font-stretch:normal;font-family:Broadway;-inkscape-font-specification:Broadway;stroke-width:0.46434712px"
           d="m 192.20188,16.396621 q -0.0109,0.250312 -0.0109,0.609455 v 0.326494 l 0.0381,3.754682 1.84469,-0.02177 1.30598,-0.01632 q 0.32105,0 0.32105,0.195897 0,0.163247 -0.16325,0.185013 -0.0381,0.0054 -0.45165,0.01088 h -6.18162 l 0.005,-0.282961 0.005,-1.817484 0.0218,-1.948081 -0.0435,-3.379214 h 5.76806 q 0.38635,0 0.44077,0.01633 0.12515,0.03265 0.12515,0.185013 0,0.190455 -0.23943,0.190455 h -0.0381 l -2.72622,-0.03809 -0.0218,1.686886 0.59313,0.0054 1.90455,-0.03265 0.419,-0.0054 q 0.22855,0 0.29929,0.03809 0.0762,0.03809 0.0762,0.152363 0,0.212222 -0.35914,0.212222 l -0.42989,-0.01088 z" />
        <path
           id="path4536"
           style="font-style:normal;font-variant:normal;font-weight:normal;font-stretch:normal;font-family:Broadway;-inkscape-font-specification:Broadway;stroke-width:0.46434712px"
           d="m 200.21731,13.567006 4.35326,7.873948 h -3.77101 l -0.51695,-0.995807 h -1.82837 l -1.6107,-0.0054 -0.27208,-0.0054 -0.35914,0.663871 q -0.15781,0.299287 -0.22311,0.370027 -0.0599,0.07618 -0.15236,0.07618 -0.18501,0 -0.18501,-0.163247 0,-0.07074 0.10339,-0.261195 0.10883,-0.195897 0.74549,-1.273327 l 3.29215,-5.544958 z m -1.69233,3.564226 -0.95227,1.605263 -0.76182,1.322301 1.63247,0.02177 1.63791,-0.01632 z" />
        <path
           id="path4538"
           style="font-style:normal;font-variant:normal;font-weight:normal;font-stretch:normal;font-family:Broadway;-inkscape-font-specification:Broadway;stroke-width:0.46434712px"
           d="m 209.1959,14.377799 -0.0272,1.703211 -0.0163,1.616146 0.0163,3.743798 h -3.31936 l 0.0326,-4.336929 -0.0163,-1.474665 -0.0163,-1.251561 -0.71828,0.01633 -1.02846,0.02177 -0.15236,0.0054 q -0.2612,0 -0.2612,-0.195897 0,-0.17413 0.15236,-0.195896 0.0435,-0.01088 0.26664,-0.01633 h 6.67681 q 0.34826,0.0054 0.41355,0.03265 0.10884,0.04353 0.10884,0.185014 0,0.185013 -0.27752,0.185013 l -0.47342,-0.01632 -1.25156,-0.02177 z" />
        <path
           id="path4540"
           style="font-style:normal;font-variant:normal;font-weight:normal;font-stretch:normal;font-family:Broadway;-inkscape-font-specification:Broadway;stroke-width:0.46434712px"
           d="m 215.31766,14.013214 v 0.38091 l -0.0272,2.981979 0.0218,4.064851 h -3.3248 l 0.0381,-4.445761 -0.0381,-2.715342 0.005,-0.266637 z" />
        <path
           id="path4542"
           style="font-style:normal;font-variant:normal;font-weight:normal;font-stretch:normal;font-family:Broadway;-inkscape-font-specification:Broadway;stroke-width:0.46434712px"
           d="m 220.19331,13.79011 q 0.85976,0 1.65967,0.364585 1.17538,0.538715 1.79572,1.659678 0.49518,0.897859 0.49518,1.953523 0,0.848884 -0.37546,1.643353 -0.56049,1.186262 -1.74675,1.801159 -0.87065,0.45165 -1.82836,0.45165 -1.01214,0 -1.91544,-0.511507 -1.20258,-0.674754 -1.71409,-1.893666 -0.31561,-0.745494 -0.31561,-1.539963 0,-0.995807 0.49518,-1.899107 0.60946,-1.11008 1.77939,-1.659679 0.77815,-0.364585 1.67057,-0.370026 z m -0.42989,0.364585 -0.0326,3.542461 0.0272,2.943888 0.005,0.663871 q 0.18502,0.03265 0.3537,0.03265 1.20259,0 2.14942,-0.663871 0.86521,-0.609455 1.25156,-1.567171 0.27208,-0.669313 0.27208,-1.3876 0,-0.946833 -0.45709,-1.763068 -0.56048,-1.001249 -1.57805,-1.474665 -0.76182,-0.359144 -1.60527,-0.359144 -0.19589,0 -0.38635,0.03265 z" />
        <path
           id="path4544"
           style="font-style:normal;font-variant:normal;font-weight:normal;font-stretch:normal;font-family:Broadway;-inkscape-font-specification:Broadway;stroke-width:0.46434712px"
           d="m 231.69678,17.626415 v -0.908742 l -0.0109,-1.442015 -0.005,-0.65843 -0.005,-0.413559 q 0,-0.293845 0.20134,-0.293845 0.11972,0 0.16325,0.07074 0.049,0.0653 0.049,0.255753 v 0.07618 q -0.005,0.114273 -0.005,0.375468 l -0.0218,1.833809 -0.0163,1.681444 0.0163,1.76851 0.0218,1.773951 q -1.12096,-0.701962 -3.28126,-1.937198 -2.16031,-1.240678 -3.49893,-1.948081 l 0.005,0.266636 0.0544,2.807849 0.005,0.375469 q 0,0.233987 -0.21767,0.233987 -0.2231,0 -0.2231,-0.288403 l 0.005,-0.38091 0.005,-0.614897 0.0218,-2.791524 -0.0435,-3.760124 q 2.20383,1.365834 6.78019,3.917929 z" />
        <path
           id="path4546"
           style="font-style:normal;font-variant:normal;font-weight:normal;font-stretch:normal;font-family:Broadway;-inkscape-font-specification:Broadway;stroke-width:0.46434712px"
           d="m 233.16056,20.17851 q 0.0979,0 0.22855,0.146923 0.40812,0.446208 0.99581,0.718287 0.59313,0.266637 1.16993,0.266637 0.63667,0 0.63667,-0.386352 0,-0.24487 -0.22311,-0.549598 -0.2231,-0.310169 -1.06654,-1.218911 -1.06111,-1.148171 -1.41481,-1.703211 -0.46798,-0.734612 -0.46798,-1.398483 0,-1.001248 0.89242,-1.637912 0.87609,-0.62578 2.1603,-0.62578 0.89786,0 1.6488,0.364585 0.28296,0.141481 0.4843,0.326494 0.20678,0.185013 0.20678,0.310169 0,0.05986 -0.0599,0.114273 -0.0544,0.04897 -0.11427,0.04897 -0.0925,0 -0.27208,-0.168688 -0.29385,-0.27752 -0.7727,-0.457092 -0.47886,-0.185013 -0.91963,-0.185013 -0.27208,0 -0.44621,0.119714 -0.16869,0.114273 -0.16869,0.299286 0,0.223105 0.21222,0.544157 0.21223,0.321053 0.71829,0.854326 1.59982,1.703211 1.95897,2.296342 0.37546,0.62578 0.37546,1.208028 0,0.495183 -0.26663,0.93595 -0.26664,0.440767 -0.74006,0.723728 -0.9033,0.538715 -2.20383,0.538715 -1.19715,0 -2.10589,-0.620338 -0.63666,-0.435326 -0.63666,-0.680196 0,-0.07074 0.0544,-0.125156 0.0599,-0.05986 0.13604,-0.05986 z" />
      </g>
    </g>
  </g>
</svg>
