<?xml version="1.0" encoding="UTF-8" standalone="no"?>
<!-- Created with Inkscape (http://www.inkscape.org/) -->

<svg
   xmlns:dc="http://purl.org/dc/elements/1.1/"
   xmlns:cc="http://creativecommons.org/ns#"
   xmlns:rdf="http://www.w3.org/1999/02/22-rdf-syntax-ns#"
   xmlns:svg="http://www.w3.org/2000/svg"
   xmlns="http://www.w3.org/2000/svg"
   xmlns:sodipodi="http://sodipodi.sourceforge.net/DTD/sodipodi-0.dtd"
   xmlns:inkscape="http://www.inkscape.org/namespaces/inkscape"
   width="80.841652"
   height="80.841652"
   viewBox="0 0 21.389353 21.389354"
   version="1.1"
   id="svg8"
   inkscape:version="0.92.1 r15371"
   sodipodi:docname="141logo_paths_octagon.svg">
  <defs
     id="defs2" />
  <sodipodi:namedview
     id="base"
     pagecolor="#ffffff"
     bordercolor="#666666"
     borderopacity="1.0"
     inkscape:pageopacity="0.0"
     inkscape:pageshadow="2"
     inkscape:zoom="0.98994949"
     inkscape:cx="-46.436261"
     inkscape:cy="-105.94264"
     inkscape:document-units="mm"
     inkscape:current-layer="layer1"
     showgrid="false"
     units="px"
     fit-margin-top="0"
     fit-margin-left="0"
     fit-margin-right="0"
     fit-margin-bottom="0"
     inkscape:window-width="1920"
     inkscape:window-height="1017"
     inkscape:window-x="-8"
     inkscape:window-y="-8"
     inkscape:window-maximized="1" />
  <metadata
     id="metadata5">
    <rdf:RDF>
      <cc:Work
         rdf:about="">
        <dc:format>image/svg+xml</dc:format>
        <dc:type
           rdf:resource="http://purl.org/dc/dcmitype/StillImage" />
        <dc:title></dc:title>
      </cc:Work>
    </rdf:RDF>
  </metadata>
  <g
     inkscape:groupmode="layer"
     id="layer2"
     inkscape:label="white_background"
     transform="translate(-148.05533,-27.480921)">
    <rect
       style="opacity:1;fill:#ffffff;fill-opacity:1;stroke:none;stroke-width:1.39600003;stroke-miterlimit:4;stroke-dasharray:none;stroke-dashoffset:0;stroke-opacity:1"
       id="rect4514"
       width="109.23512"
       height="39.309525"
       x="225.27382"
       y="73.327377"
       inkscape:export-xdpi="192"
       inkscape:export-ydpi="192" />
  </g>
  <g
     inkscape:label="Layer 1"
     inkscape:groupmode="layer"
     id="layer1"
     transform="translate(-148.05533,-6.9809035)">
    <g
       id="g4528">
      <path
         transform="matrix(0.26109565,0.13992186,-0.13992186,0.26109565,153.20874,5.9709248)"
         d="M 63.122022,48.669626 C 62.080577,49.954075 40.538216,61.63334 38.89356,61.80517 37.248904,61.976999 13.757667,55.002737 12.473217,53.961292 11.188768,52.919846 -0.4904967,31.377485 -0.66232643,29.732829 -0.83415617,28.088173 6.140106,4.5969365 7.1815515,3.3124871 8.222997,2.0280376 29.765358,-9.6512271 31.410014,-9.8230568 c 1.644656,-0.1718297 25.135893,6.8024324 26.420342,7.843878 1.28445,1.04144548 12.963714,22.5838058 13.135544,24.2284628 0.17183,1.644656 -6.802432,25.135892 -7.843878,26.420342 z"
         inkscape:randomized="0"
         inkscape:rounded="0.06"
         inkscape:flatsided="true"
         sodipodi:arg2="1.0739973"
         sodipodi:arg1="0.68129823"
         sodipodi:r2="33.268024"
         sodipodi:r1="36.009048"
         sodipodi:cy="25.991056"
         sodipodi:cx="35.151787"
         sodipodi:sides="8"
         id="path4485"
         style="opacity:1;fill:#ffffff;fill-opacity:1;stroke:#000000;stroke-width:4.71263885;stroke-miterlimit:4;stroke-dasharray:none;stroke-dashoffset:0;stroke-opacity:0.94117647"
         sodipodi:type="star" />
      <g
         id="text4491"
         style="font-style:normal;font-variant:normal;font-weight:normal;font-stretch:normal;font-size:8.76295376px;line-height:125%;font-family:Broadway;-inkscape-font-specification:Broadway;letter-spacing:0px;word-spacing:0px;fill:#000000;fill-opacity:1;stroke:none;stroke-width:0.36512306px;stroke-linecap:butt;stroke-linejoin:miter;stroke-opacity:1"
         aria-label="141">
        <path
           id="path4549"
           style="font-style:normal;font-variant:normal;font-weight:normal;font-stretch:normal;font-size:9.73661518px;font-family:Broadway;-inkscape-font-specification:Broadway;fill:#00695c;fill-opacity:1;stroke-width:0.36512306px"
           d="m 154.47453,14.582969 -0.038,2.714652 0.038,3.722544 v 0.156888 h -2.74318 v -0.156888 l 0.038,-3.779595 0.01,-1.397736 v -0.199677 l -0.0951,0.02853 -0.68936,0.213939 q -0.10459,0.03803 -0.18066,0.03803 -0.14263,0 -0.14263,-0.161643 0,-0.118855 0.0713,-0.161643 0.0761,-0.04279 0.43263,-0.133118 l 1.1933,-0.309023 0.4469,-0.118855 z"
           inkscape:connector-curvature="0" />
        <path
           id="path4551"
           style="font-style:normal;font-variant:normal;font-weight:normal;font-stretch:normal;font-size:9.73661518px;font-family:Broadway;-inkscape-font-specification:Broadway;fill:#00695c;fill-opacity:1;stroke-width:0.36512306px"
           d="m 160.58844,19.864892 v 1.312161 h -2.67662 l 0.0143,-0.665588 0.005,-0.532472 v -0.09508 h -0.12837 l -0.4564,-0.0048 -1.06019,0.01426 -0.2805,0.0048 q -0.25197,0 -0.35181,-0.04279 -0.0951,-0.04754 -0.0951,-0.166397 0,-0.08558 0.0903,-0.199677 0.0951,-0.118855 0.50394,-0.556242 l 4.44519,-4.758961 -0.005,0.342303 -0.0143,1.602168 -0.01,1.94447 0.0143,1.473804 q 0.0571,0.0095 0.0951,0.0095 0.0238,0 0.0856,-0.01902 l 0.51346,-0.01902 0.13787,-0.0095 q 0.15213,0 0.15213,0.180659 0,0.152135 -0.1236,0.171152 -0.0285,0.0095 -0.35182,0.01426 z m -2.65285,-0.309023 v -2.058571 l -1.90644,2.049063 q 0.46116,0.01902 0.90806,0.01902 z"
           inkscape:connector-curvature="0" />
        <path
           id="path4553"
           style="font-style:normal;font-variant:normal;font-weight:normal;font-stretch:normal;font-size:9.73661518px;font-family:Broadway;-inkscape-font-specification:Broadway;fill:#00695c;fill-opacity:1;stroke-width:0.36512306px"
           d="m 165.77052,14.582969 -0.038,2.714652 0.038,3.722544 v 0.156888 h -2.74317 v -0.156888 l 0.038,-3.779595 0.01,-1.397736 v -0.199677 l -0.0951,0.02853 -0.68936,0.213939 q -0.10459,0.03803 -0.18066,0.03803 -0.14262,0 -0.14262,-0.161643 0,-0.118855 0.0713,-0.161643 0.0761,-0.04279 0.43263,-0.133118 l 1.19331,-0.309023 0.44689,-0.118855 z"
           inkscape:connector-curvature="0" />
      </g>
    </g>
  </g>
</svg>
